<?xml version="1.0" encoding="UTF-8"?><svg id="Layer_2" xmlns="http://www.w3.org/2000/svg" viewBox="0 0 239.67 239.67"><g id="Layer_4"><path d="M109.0416,21.3889h21.5877c6.6323,0,11.8995,5.5778,11.52,12.1992l-2.581,45.0248c-.4039,7.0465-6.2359,12.5538-13.294,12.5538h-12.8775c-7.0581,0-12.8901-5.5072-13.294-12.5538l-2.581-45.0248c-.3796-6.6215,4.8876-12.1992,11.52-12.1992Z" style="fill:none; stroke:#9A9F9A; stroke-linecap:round; stroke-linejoin:round;"/><path d="M21.391,130.6271v-21.5877c0-6.6323,5.5778-11.8995,12.1992-11.52l45.0248,2.581c7.0465.4039,12.5538,6.2359,12.5538,13.294v12.8775c0,7.0581-5.5072,12.8901-12.5538,13.294l-45.0248,2.581c-6.6215.3796-12.1992-4.8876-12.1992-11.52Z" style="fill:none; stroke:#9A9F9A; stroke-linecap:round; stroke-linejoin:round;"/><path d="M130.6293,218.2777h-21.5877c-6.6323,0-11.8995-5.5778-11.52-12.1992l2.581-45.0248c.4039-7.0465,6.2359-12.5538,13.294-12.5538h12.8775c7.0581,0,12.8901,5.5072,13.294,12.5538l2.581,45.0248c.3796,6.6215-4.8876,12.1992-11.52,12.1992Z" style="fill:none; stroke:#9A9F9A; stroke-linecap:round; stroke-linejoin:round;"/><path d="M218.2799,109.0395v21.5877c0,6.6323-5.5778,11.8995-12.1992,11.52l-45.0248-2.581c-7.0465-.4039-12.5538-6.2359-12.5538-13.294v-12.8775c0-7.0581,5.5072-12.8901,12.5538-13.294l45.0248-2.581c6.6215-.3796,12.1992,4.8876,12.1992,11.52Z" style="fill:none; stroke:#9A9F9A; stroke-linecap:round; stroke-linejoin:round;"/><path d="M175.97,99.25c2.36,6.42,3.64,13.35,3.64,20.58s-1.28,14.17-3.64,20.59l-14.91-.85c-7.05-.41-12.56-6.24-12.56-13.3v-12.88c0-7.05,5.51-12.89,12.56-13.29l14.91-.85Z"/><path d="M139.57,161.05l.85,14.92c-6.42,2.36-13.35,3.64-20.58,3.64s-14.17-1.28-20.59-3.64l.85-14.92c.41-7.04,6.24-12.55,13.3-12.55h12.87c7.06,0,12.89,5.51,13.3,12.55Z"/><path d="M140.42,63.7l-.85,14.91c-.41,7.05-6.24,12.56-13.3,12.56h-12.87c-7.06,0-12.89-5.51-13.3-12.56l-.85-14.91c6.42-2.36,13.36-3.64,20.59-3.64s14.16,1.28,20.58,3.64Z"/><path d="M91.17,113.39v12.88c0,7.06-5.51,12.89-12.55,13.3l-14.92.85c-2.36-6.42-3.64-13.36-3.64-20.59s1.28-14.16,3.64-20.58l14.92.85c7.04.4,12.55,6.24,12.55,13.29Z"/><path d="M133.39,119.83c0-7.48-6.07-13.55-13.55-13.55-7.49,0-13.56,6.07-13.56,13.55,0,7.49,6.07,13.56,13.56,13.56,7.48,0,13.55-6.07,13.55-13.56Z" style="fill:none; stroke:#000; stroke-miterlimit:10; stroke-width:5px;"/><path d="M239.17,119.83C239.17,53.93,185.74.5,119.84.5S.5,53.93.5,119.83s53.43,119.34,119.34,119.34,119.33-53.43,119.33-119.34Z" style="fill:none; stroke:#9A9F9A; stroke-miterlimit:10;"/></g></svg>