<?xml version="1.0" encoding="UTF-8"?><svg id="Layer_2" xmlns="http://www.w3.org/2000/svg" viewBox="0 0 29 29"><g id="Layer_2-2"><path d="M22,0H7C3.134,0,0,3.134,0,7v15c0,3.866,3.134,7,7,7h15c3.866,0,7-3.134,7-7V7c0-3.866-3.134-7-7-7ZM7.5,17.5741c0,.5522-.4477,1-1,1s-1-.4478-1-1v-6.1482c0-.5522.4478-1,1-1s1,.4478,1,1v6.1482ZM11.5,19.6852c0,.5523-.4477,1-1,1s-1-.4477-1-1v-10.3704c0-.5523.4478-1,1-1s1,.4477,1,1v10.3704ZM15.5,21.5c0,.5523-.4477,1-1,1s-1-.4477-1-1V7.5c0-.5523.4478-1,1-1s1,.4477,1,1v14ZM19.5,19.6852c0,.5523-.4477,1-1,1s-1-.4477-1-1v-10.3704c0-.5523.4478-1,1-1s1,.4477,1,1v10.3704ZM23.5,17.5741c0,.5522-.4477,1-1,1s-1-.4478-1-1v-6.1482c0-.5522.4478-1,1-1s1,.4478,1,1v6.1482Z"/></g></svg>